<svg width="8" height="14" viewBox="0 0 8 14" fill="none" xmlns="http://www.w3.org/2000/svg">
<path d="M5.31399 7.07098L0.363994 2.12098C0.181836 1.93238 0.0810419 1.67978 0.0833203 1.41758C0.0855987 1.15538 0.190768 0.904571 0.376176 0.719163C0.561584 0.533755 0.812396 0.428586 1.07459 0.426307C1.33679 0.424029 1.58939 0.524823 1.77799 0.706981L7.43499 6.36398C7.62247 6.55151 7.72778 6.80582 7.72778 7.07098C7.72778 7.33615 7.62247 7.59045 7.43499 7.77798L1.77799 13.435C1.58939 13.6171 1.33679 13.7179 1.07459 13.7157C0.812396 13.7134 0.561584 13.6082 0.376176 13.4228C0.190768 13.2374 0.0855987 12.9866 0.0833203 12.7244C0.0810419 12.4622 0.181836 12.2096 0.363994 12.021L5.31399 7.07098Z" fill="#94A3B8"/>
</svg>
