<svg width="25" height="24" viewBox="0 0 25 24" fill="none" xmlns="http://www.w3.org/2000/svg">
<path d="M7.33338 19C6.61016 18.9996 5.89563 18.8423 5.23909 18.539C4.58256 18.2357 3.99964 17.7935 3.53055 17.2431C3.06147 16.6926 2.71738 16.0469 2.52203 15.3506C2.32668 14.6542 2.28472 13.9238 2.39905 13.2097C2.51337 12.4955 2.78125 11.8147 3.18422 11.2141C3.58718 10.6136 4.11563 10.1076 4.73312 9.73107C5.3506 9.35455 6.04241 9.11647 6.76083 9.03324C7.47925 8.95002 8.20718 9.02365 8.89438 9.24903C9.52895 7.76666 10.6557 6.54874 12.0843 5.80098C13.5129 5.05322 15.1559 4.82145 16.7356 5.14482C18.3153 5.4682 19.735 6.32689 20.7549 7.57587C21.7748 8.82484 22.3323 10.3875 22.3334 12C22.3334 13.8565 21.5959 15.637 20.2831 16.9498C18.9704 18.2625 17.1899 19 15.3334 19H7.33338ZM7.33338 17H15.3334C16.2364 16.9996 17.1224 16.7547 17.8973 16.2912C18.6723 15.8278 19.3073 15.1631 19.7349 14.3678C20.1625 13.5725 20.3668 12.6763 20.326 11.7742C20.2852 10.8722 20.0009 9.998 19.5033 9.24453C19.0056 8.49106 18.3133 7.8864 17.4996 7.49478C16.686 7.10315 15.7815 6.93916 14.8822 7.02022C13.9829 7.10128 13.1223 7.42437 12.3918 7.95519C11.6613 8.486 11.0883 9.20472 10.7334 10.035L10.0134 11.721L8.27138 11.149C7.85916 11.014 7.42256 10.97 6.99168 11.0201C6.56081 11.0701 6.14591 11.213 5.77558 11.4388C5.40526 11.6647 5.08832 11.9682 4.84661 12.3284C4.6049 12.6885 4.44418 13.0969 4.37551 13.5252C4.30685 13.9535 4.33188 14.3916 4.44889 14.8092C4.56589 15.2269 4.77208 15.6143 5.05324 15.9446C5.33441 16.2749 5.68385 16.5403 6.0775 16.7225C6.47114 16.9047 6.89961 16.9994 7.33338 17Z" fill="#94A3B8"/>
</svg>
