<svg width="25" height="24" viewBox="0 0 25 24" fill="none" xmlns="http://www.w3.org/2000/svg">
<path d="M13.2156 2.26003C12.9546 2.08709 12.6476 1.99654 12.3345 2.0001C12.0214 2.00367 11.7166 2.10119 11.4596 2.28003L3.59462 7.76003C3.17462 8.05203 2.92462 8.53003 2.92462 9.04203V14.945C2.92462 15.47 3.18862 15.959 3.62662 16.248L11.6206 21.533C11.8762 21.702 12.1758 21.7921 12.4821 21.7921C12.7885 21.7921 13.0881 21.702 13.3436 21.533L21.4966 16.147C21.9346 15.857 22.1976 15.367 22.1976 14.843V9.04303C22.1976 8.51903 21.9346 8.03003 21.4976 7.74003L13.2156 2.26003ZM19.3056 8.65303L16.2916 10.676L13.4656 8.62103L13.4476 4.57903L19.3046 8.65303H19.3056ZM11.4036 4.58303V8.54003L8.50662 10.564L5.61962 8.62703L11.4036 4.58303ZM4.82662 10.576L6.69662 11.829L4.82662 13.137V10.577V10.576ZM11.4516 19.009L5.62062 15.1L8.53362 13.063L11.4536 15.021V19.011L11.4516 19.009ZM10.3466 11.796L12.2346 10.476L14.4346 11.921L12.4846 13.231L10.3466 11.796ZM13.5136 19.009V15.019L16.3036 13.149L19.3066 15.124L13.5136 19.009ZM20.1386 13.204L18.1586 11.904L20.1386 10.575V13.205V13.204Z" fill="#94A3B8"/>
</svg>
