<svg width="25" height="24" viewBox="0 0 25 24" fill="none" xmlns="http://www.w3.org/2000/svg">
<path d="M22.6666 10.163C22.3406 10.3463 22.0693 10.613 21.8805 10.9359C21.6918 11.2587 21.5924 11.626 21.5926 12C21.5926 12.789 22.0256 13.476 22.6666 13.837L21.9496 16.243C21.5621 16.1763 21.1636 16.2196 20.7994 16.3678C20.4351 16.516 20.1197 16.7633 19.8888 17.0816C19.6579 17.3999 19.5208 17.7766 19.493 18.1688C19.4652 18.5611 19.5479 18.9533 19.7316 19.301L17.6696 20.903C17.3966 20.6792 17.0717 20.5277 16.7248 20.4624C16.3779 20.3971 16.0201 20.4202 15.6845 20.5295C15.3488 20.6387 15.0461 20.8307 14.804 21.0877C14.562 21.3447 14.3886 21.6584 14.2996 22L11.0096 21.992C10.9197 21.652 10.746 21.34 10.5044 21.0845C10.2628 20.829 9.96102 20.6381 9.62661 20.5292C9.29221 20.4204 8.93587 20.3972 8.59016 20.4616C8.24445 20.526 7.9204 20.676 7.64763 20.898L5.58763 19.283C5.7662 18.9367 5.84518 18.5477 5.81577 18.1592C5.78636 17.7708 5.64972 17.3981 5.42105 17.0826C5.19239 16.7672 4.88067 16.5214 4.5206 16.3727C4.16054 16.2239 3.76625 16.178 3.38163 16.24L2.66663 13.825C2.98658 13.6398 3.25214 13.3737 3.43663 13.0533C3.62112 12.733 3.71803 12.3697 3.71763 12C3.71763 11.22 3.29663 10.54 2.66663 10.175L3.38163 7.76C3.76632 7.82225 4.16075 7.77648 4.52097 7.6278C4.8812 7.47912 5.19308 7.23336 5.42188 6.9179C5.65067 6.60243 5.78741 6.22964 5.81685 5.84106C5.84629 5.45247 5.76728 5.06334 5.58863 4.717L7.64663 3.102C7.9194 3.32395 8.24345 3.47399 8.58916 3.53841C8.93487 3.60283 9.29121 3.57957 9.62561 3.47075C9.96002 3.36194 10.2618 3.17104 10.5034 2.91551C10.745 2.65998 10.9187 2.34797 11.0086 2.008L14.3006 2C14.3896 2.34161 14.563 2.65535 14.805 2.91233C15.047 3.16931 15.3498 3.36127 15.6855 3.47053C16.0211 3.5798 16.3789 3.60285 16.7258 3.53758C17.0727 3.4723 17.3976 3.32079 17.6706 3.097L19.7306 4.7C19.5469 5.04769 19.4642 5.43989 19.492 5.83215C19.5198 6.22442 19.6569 6.60106 19.8878 6.91938C20.1187 7.23771 20.4341 7.485 20.7983 7.63322C21.1626 7.78144 21.5611 7.82467 21.9486 7.758L22.6666 10.162V10.163ZM17.4896 5.68C17.4896 5.617 17.4916 5.555 17.4946 5.492L17.4146 5.43C16.6357 5.64219 15.8115 5.61989 15.0452 5.36588C14.2789 5.11187 13.6046 4.63744 13.1066 4.002L12.2026 4.004C11.7065 4.63674 11.0354 5.10966 10.2726 5.36392C9.50983 5.61817 8.68914 5.64255 7.91263 5.434L7.81763 5.51C7.85528 6.41268 7.59431 7.30259 7.07512 8.04197C6.55593 8.78135 5.80747 9.32895 4.94563 9.6C5.44844 10.2988 5.71854 11.1381 5.71763 11.999C5.71763 12.881 5.43763 13.714 4.94563 14.399C5.80747 14.67 6.55593 15.2176 7.07512 15.957C7.59431 16.6964 7.85528 17.5863 7.81763 18.489L7.91363 18.564C8.69002 18.3562 9.51034 18.3809 10.2728 18.6351C11.0353 18.8894 11.7063 19.3619 12.2026 19.994L13.1066 19.996C13.6042 19.3604 14.2784 18.8859 15.0446 18.6319C15.8108 18.3778 16.6349 18.3556 17.4136 18.568L17.4936 18.506C17.4524 17.6005 17.7119 16.7068 18.2315 15.9642C18.7512 15.2215 19.5018 14.6716 20.3666 14.4C19.8634 13.701 19.5929 12.8613 19.5936 12C19.5936 11.118 19.8746 10.284 20.3666 9.6C19.5326 9.33781 18.804 8.81638 18.2867 8.11155C17.7695 7.40672 17.4906 6.55526 17.4906 5.681L17.4896 5.68ZM12.6666 16C11.6058 16 10.5883 15.5786 9.8382 14.8284C9.08805 14.0783 8.66663 13.0609 8.66663 12C8.66663 10.9391 9.08805 9.92172 9.8382 9.17157C10.5883 8.42143 11.6058 8 12.6666 8C13.7275 8 14.7449 8.42143 15.4951 9.17157C16.2452 9.92172 16.6666 10.9391 16.6666 12C16.6666 13.0609 16.2452 14.0783 15.4951 14.8284C14.7449 15.5786 13.7275 16 12.6666 16ZM12.6666 14C13.1971 14 13.7058 13.7893 14.0808 13.4142C14.4559 13.0391 14.6666 12.5304 14.6666 12C14.6666 11.4696 14.4559 10.9609 14.0808 10.5858C13.7058 10.2107 13.1971 10 12.6666 10C12.1362 10 11.6275 10.2107 11.2524 10.5858C10.8773 10.9609 10.6666 11.4696 10.6666 12C10.6666 12.5304 10.8773 13.0391 11.2524 13.4142C11.6275 13.7893 12.1362 14 12.6666 14Z" fill="#94A3B8"/>
</svg>
